# xmcd
# 
# Track frame offsets:
#     150
#     16160
#     27152
#     40946
#     53674
#     64523
#     81671
#     96782
#     106766
#     116414
#     128145
#     149423
# 
# Disc length: 2250
# 
# Revision: 1
# Processed by: cddbd v1.5.2PL0 Copyright (c) Steve Scherf et al.
# Submitted via: BonkEnc v1.0.15
# 
DISCID=9708c80c
DTITLE=中島みゆき - 私の声が聞こえますか
DYEAR=1976
DGENRE=Pop-Folk
TTITLE0=あぶな坂
TTITLE1=あたしのやさしい人
TTITLE2=信じられない頃に
TTITLE3=ボギーボビーの赤いバラ
TTITLE4=海よ
TTITLE5=アザミ嬢のララバイ
TTITLE6=踊り明かそう
TTITLE7=ひとり遊び
TTITLE8=悲しいことはいつもある
TTITLE9=歌をあなたに
TTITLE10=渚便り
TTITLE11=時代
EXTD=YEAR: 1976 ID3G: 53
EXTT0=
EXTT1=
EXTT2=
EXTT3=
EXTT4=
EXTT5=
EXTT6=
EXTT7=
EXTT8=
EXTT9=
EXTT10=
EXTT11=
PLAYORDER=
